<?xml version="1.0" encoding="utf-8"?>
<!-- Generator: Adobe Illustrator 21.0.0, SVG Export Plug-In . SVG Version: 6.00 Build 0)  -->
<svg version="1.1" id="Layer_1" xmlns="http://www.w3.org/2000/svg" xmlns:xlink="http://www.w3.org/1999/xlink" x="0px" y="0px"
	 viewBox="0 0 240.9 240.9" style="enable-background:new 0 0 240.9 240.9;" xml:space="preserve">
<style type="text/css">
	.st0{fill:#402D33;}
	.st1{fill:#FFF200;}
	.st2{fill:#C2B3AE;}
</style>
<g>
	<g>
		<g>
			<path class="st0" d="M99.8,197.5c0,0,13.6,1.4,20.7,1.4c65.5,0,118.6-41.9,118.6-93.6c0-51.7-53.1-93.6-118.6-93.6
				C54.9,11.7,1.8,53.6,1.8,105.3c0,32,20.4,60.3,51.5,77.2c0,0-4.2,22.4-27.7,43.8c0,0-2.3,4.1,4.6,2.6
				C37.3,227.4,80.6,212.1,99.8,197.5z"/>
		</g>
	</g>
</g>
<path class="st1" d="M69.1,79.7H33.6c-3.3,0-6,2.7-6,6c0,3.3,2.7,6,6,6h11.5v42.5c0,1.5,0.6,3.1,1.7,4.2c1.1,1.1,2.6,1.7,4.1,1.7
	h1.3c1.5,0,3.1-0.6,4.1-1.7c1.1-1.1,1.7-2.6,1.7-4.2V91.7h10.9c3.3,0,6-2.7,6-6C75.1,82.4,72.4,79.7,69.1,79.7z"/>
<path class="st1" d="M154.2,128.8h-16.5V85.4c0-3.6-2.9-6.5-6.5-6.5c-3.6,0-6.5,2.9-6.5,6.5v46.7c0,0.4,0.1,0.7,0.1,1
	c-0.1,0.3-0.1,0.7-0.1,1c0,3,2.4,5.5,5.5,5.5h24.1c3,0,5.5-2.5,5.5-5.5C159.7,131.2,157.3,128.8,154.2,128.8z"/>
<path class="st1" d="M206.9,130.7l-18.4-24.1L205.1,90c2.3-2.2,2.3-5.9,0-8.1c-2.2-2.2-5.9-2.2-8.1,0l-20.5,20.5v-17
	c0-3.6-2.9-6.5-6.5-6.5c-3.6,0-6.5,2.9-6.5,6.5v48.2c0,3.6,2.9,6.5,6.5,6.5c3.6,0,6.5-2.9,6.5-6.5v-14.9l3.7-3.7l17.4,22.8
	c1.9,2.6,5.6,3.1,8.2,1.2C208.3,137,208.8,133.3,206.9,130.7z"/>
<path class="st1" d="M119.8,132.3L102.1,84c0,0,0,0-0.1-0.1c-1.1-2.9-4.4-5.1-8.3-5.1c-4.3,0-7.9,2.6-8.6,6.1
	c-0.1,0.3-0.2,0.5-0.3,0.8l-17.4,46.6c-1.1,3.1,0.5,6.4,3.6,7.5c3.1,1.1,6.4-0.5,7.5-3.6l3-8.6h24.2l3,8.6c1.1,3.1,4.4,4.7,7.5,3.6
	C119.2,138.7,120.8,135.4,119.8,132.3z M85.4,116.7l8.1-23.2c0.1,0,0.2,0,0.3,0l8.1,23.2H85.4z"/>
<polygon class="st2" points="101.4,51.2 97,51.2 92.4,58.5 92.4,51.2 88.7,51.2 88.7,67.1 92.4,67.1 92.4,59.6 97,66.9 101.4,66.9 
	96.5,59 "/>
<polygon class="st2" points="129.7,51.2 125.3,51.2 120.7,58.5 120.7,51.2 117,51.2 117,67.1 120.7,67.1 120.7,59.6 125.3,66.9 
	129.7,66.9 124.8,59 "/>
<path class="st2" d="M111,66.9h3.7l-2-12.1c0,0-0.8-3.5-4.2-3.5c-3.5,0-4.2,3.5-4.2,3.5l-2,12.1h3.7l0.4-3.3h4.1L111,66.9z
	 M106.8,60.8l0.7-5.6c1.1-1.2,2,0,2,0l0.7,5.6H106.8z"/>
<path class="st2" d="M139.4,66.9h3.7l-2-12.1c0,0-0.8-3.5-4.2-3.5c-3.5,0-4.2,3.5-4.2,3.5l-2,12.1h3.7l0.4-3.3h4.1L139.4,66.9z
	 M135.2,60.8l0.7-5.6c1.1-1.2,2,0,2,0l0.7,5.6H135.2z"/>
<path class="st2" d="M156.7,55.9c0,0-0.7-4.7-6.2-4.7c-5.5,0-5.8,4.7-5.8,4.7v6.6l0.1,0l-0.1,0.1c0,0,0.3,4.7,5.8,4.7
	c5.5,0,6.2-4.7,6.2-4.7l-0.1-0.1l0.1,0V55.9z M150.5,63.7c-1.8,0-2.1-1.7-2.1-1.7v-5.5c0,0,0.3-1.7,2.1-1.7c1.8,0,2.5,1.7,2.5,1.7
	V62C153,62,152.3,63.7,150.5,63.7z"/>
</svg>
