<svg xmlns="http://www.w3.org/2000/svg" xmlns:xlink="http://www.w3.org/1999/xlink" width="155.675" height="167.697" viewBox="0 0 155.675 167.697"><defs><clipPath id="a"><rect width="155.675" height="167.697" fill="none" stroke="#000" stroke-width="5"/></clipPath></defs><g transform="translate(0 0)"><g transform="translate(0 0)"><g clip-path="url(#a)"><path d="M66.19,20.5A2.5,2.5,0,0,1,68.5,22.032l33.569,80.052a2.5,2.5,0,0,1-3.272,3.272L18.74,71.787a2.5,2.5,0,0,1-.8-4.073L64.422,21.231A2.5,2.5,0,0,1,66.19,20.5Zm28.9,77.884L65.325,27.4,24.108,68.616Z" transform="translate(52.263 60.993)"/></g></g><path d="M0,30.906a2.5,2.5,0,0,1-2.018-1.022,2.5,2.5,0,0,1,.538-3.494L37.259-2.016a2.5,2.5,0,0,1,3.494.538,2.5,2.5,0,0,1-.538,3.494L1.478,30.421A2.489,2.489,0,0,1,0,30.906Z" transform="translate(84.883 104.651)"/><path d="M0,25.742a2.5,2.5,0,0,1-2.058-1.077,2.5,2.5,0,0,1,.632-3.479L32.146-2.055a2.5,2.5,0,0,1,3.479.632,2.5,2.5,0,0,1-.632,3.479L1.423,25.3A2.489,2.489,0,0,1,0,25.742Z" transform="translate(97.795 117.562)"/><path d="M0,15.414a2.5,2.5,0,0,1-2.188-1.286,2.5,2.5,0,0,1,.971-3.4L22.027-2.185a2.5,2.5,0,0,1,3.4.971,2.5,2.5,0,0,1-.971,3.4L1.214,15.1A2.489,2.489,0,0,1,0,15.414Z" transform="translate(113.289 133.055)"/><g transform="translate(0 0)"><g clip-path="url(#a)"><path d="M0,7.665A2.5,2.5,0,0,1-2.236,6.282,2.5,2.5,0,0,1-1.118,2.928L9.21-2.236a2.5,2.5,0,0,1,3.354,1.118,2.5,2.5,0,0,1-1.118,3.354L1.118,7.4A2.49,2.49,0,0,1,0,7.665Z" transform="translate(131.365 148.552)"/><path d="M31.988,8.792a2.5,2.5,0,0,1,2.474,2.146l2.417,16.9,11.89,7.137a2.5,2.5,0,0,1-.5,4.515L33.964,44.256,29.2,58.566a2.5,2.5,0,0,1-4.516.5L17.546,47.168.646,44.755A2.5,2.5,0,0,1-.768,40.512l9.239-9.239L3.792,17.247a2.5,2.5,0,0,1,3.162-3.163l14.03,4.675L30.22,9.524A2.5,2.5,0,0,1,31.988,8.792Zm9.549,27.67-8.25-4.953A2.5,2.5,0,0,1,32.1,29.72L30.22,16.595l-6.793,6.793a2.5,2.5,0,0,1-2.558.6L10.118,20.409,13.7,31.157a2.5,2.5,0,0,1-.6,2.559l-6.8,6.8,13.128,1.875a2.5,2.5,0,0,1,1.79,1.189l4.949,8.251,3.445-10.337A2.5,2.5,0,0,1,31.2,39.908Z" transform="translate(2.652 29.946)"/><path d="M37.8,86.423a2.5,2.5,0,0,1-2.416-1.864l-12.9-49a34.327,34.327,0,0,1-1.39-9.741,29,29,0,0,1,1.42-9.183,23.737,23.737,0,0,1,5.77-9.369A35.444,35.444,0,0,1,36.021,1.28a22.4,22.4,0,0,1,6.453-2.445,13.284,13.284,0,0,1,6.445.082L47.336,3.659l.042.013a9.36,9.36,0,0,0-4.293.144c-2.531.578-6.54,2.259-11.263,6.984-3.767,3.766-5.693,8.768-5.726,14.868a29.512,29.512,0,0,0,1.163,8.4c.018.053.031.1.045.151L40.217,83.286A2.5,2.5,0,0,1,37.8,86.423Z" transform="translate(62.576 2.652)"/><path d="M30.988,12.829A2.5,2.5,0,0,1,30.2,12.7L-.79,2.372A2.5,2.5,0,0,1-2.372-.79,2.5,2.5,0,0,1,.79-2.372L31.778,7.956a2.5,2.5,0,0,1-.79,4.872Z" transform="translate(43.566 102.07)"/><path d="M10.328,33.488a2.5,2.5,0,0,1-2.371-1.71L-2.372.79A2.5,2.5,0,0,1-.79-2.372,2.5,2.5,0,0,1,2.372-.79L12.7,30.2a2.5,2.5,0,0,1-2.372,3.291Z" transform="translate(69.39 40.093)"/><path d="M11.792,13.8a2.492,2.492,0,0,1-1.729-.695L-1.73,1.805A2.5,2.5,0,0,1-1.805-1.73,2.5,2.5,0,0,1,1.73-1.805l11.792,11.3a2.5,2.5,0,0,1-1.73,4.305Z" transform="translate(61.094 80.925)"/><path d="M0,7.664a2.5,2.5,0,0,1-2.449-2.01A2.5,2.5,0,0,1-.49,2.713L25.333-2.451A2.5,2.5,0,0,1,28.275-.49a2.5,2.5,0,0,1-1.961,2.942L.49,7.615A2.512,2.512,0,0,1,0,7.664Z" transform="translate(33.236 127.892)"/></g></g></g></svg>