<svg xmlns="http://www.w3.org/2000/svg" width="199.999" height="21.305" viewBox="0 0 199.999 21.305">
  <path id="패스_535" data-name="패스 535" d="M362.913,290.952v-6.607h-2.434v6.607h-1.734v2.228h1.734v11.933h2.434V293.18h3.47v-2.228Zm17.291-.393a7.473,7.473,0,1,0,7.514,7.5A7.469,7.469,0,0,0,380.2,290.559Zm0,12.716a5.245,5.245,0,1,1,5.08-5.243A5.038,5.038,0,0,1,380.2,303.274Zm22.427-5.695,5.234-6.627h-3.043l-3.743,4.821-3.744-4.821h-2.981l5.2,6.627-6.088,7.534h3.046l4.565-5.756,4.533,5.756h2.953Zm19.34-7.021a4.813,4.813,0,0,0-4.078,2.11h-.059v-1.717H415.4v14.161h2.437v-6.719c0-2.532.212-5.605,3.559-5.605,2.83,0,3.012,2.049,3.012,4.338v7.986h2.434v-8.408C426.84,293.392,425.927,290.559,421.972,290.559Zm28.013.393v14.161h2.434V290.952Zm11.393-6.607v20.769h2.434V284.345Zm11.347,0v20.769h2.434V284.345Zm-30.153,2.411h-1.644c-1.978,0-1.978,1.062-1.978,3.887v.308h3.622v2.23H438.95v11.932h-2.435V293.181H434.7v-2.23h1.811V289.8c0-1.176,0-3.1.639-4.121.792-1.266,2.222-1.333,3.683-1.333h1.735Zm9.846,0h-2.434v-2.435h2.434Zm50.639,11.615c0,4.037-2.721,7.255-6.077,7.255a5.526,5.526,0,0,1-3.815-1.434v1.083h-2.645V284.5h2.645v8.074a5.644,5.644,0,0,1,3.815-1.4C500.337,291.174,503.058,294.393,503.058,298.371Zm-2.645,0c0-2.428-1.6-4.447-3.815-4.447a3.8,3.8,0,0,0-3.433,1.931v5.061a3.83,3.83,0,0,0,3.433,1.96C498.811,302.876,500.413,300.829,500.413,298.371Zm17.087-7.138V294.1a5.3,5.3,0,0,0-4.425,2.516v8.659h-2.645v-13.75h2.645V293.4A5.48,5.48,0,0,1,517.5,291.233Zm18.257,7.167c0,4.213-2.645,7.225-6.357,7.225s-6.357-3.013-6.357-7.225,2.645-7.226,6.357-7.226S535.758,294.188,535.758,298.4Zm-2.645,0c0-2.6-1.551-4.476-3.713-4.476s-3.713,1.873-3.713,4.476c0,2.574,1.551,4.476,3.713,4.476S533.113,300.975,533.113,298.4Zm25.631-6.875-4.3,13.75h-2.314l-2.8-9.537-2.823,9.537H544.2l-4.3-13.75h2.847l2.594,9.186,2.848-9.186h2.263l2.848,9.156,2.593-9.156Z" transform="translate(-358.745 -284.321)" fill="#262626"/>
</svg>
