<svg xmlns="http://www.w3.org/2000/svg" width="245.35" height="26.136" viewBox="0 0 245.35 26.136">
  <g id="그룹_1949" data-name="그룹 1949" transform="translate(0 0)">
    <path id="패스_535" data-name="패스 535" d="M363.859,292.456V284.35h-2.986v8.106h-2.127v2.733h2.127v14.639h2.986V295.189h4.256v-2.733Zm21.212-.483a9.167,9.167,0,1,0,9.218,9.2A9.163,9.163,0,0,0,385.07,291.973Zm0,15.6a6.435,6.435,0,1,1,6.232-6.432A6.181,6.181,0,0,1,385.07,307.572Zm27.513-6.986,6.421-8.13h-3.733l-4.592,5.915-4.592-5.915H402.43l6.383,8.13-7.469,9.243h3.736l5.6-7.062,5.561,7.062h3.623Zm23.725-8.613a5.9,5.9,0,0,0-5,2.589h-.072v-2.106h-2.99v17.373h2.99v-8.243c0-3.106.26-6.876,4.366-6.876,3.472,0,3.7,2.514,3.7,5.322v9.8h2.986V299.514C442.281,295.449,441.161,291.973,436.308,291.973Zm34.366.483v17.373h2.986V292.456Zm13.976-8.106v25.478h2.986V284.35Zm13.921,0v25.478h2.986V284.35Zm-36.99,2.958h-2.017c-2.426,0-2.426,1.3-2.426,4.768v.378h4.443v2.736h-4.443v14.638H454.15V295.19h-2.222v-2.736h2.222v-1.413c0-1.442,0-3.8.784-5.056.971-1.553,2.726-1.635,4.518-1.635h2.128Zm12.079,0h-2.986v-2.987h2.986Zm62.122,14.249c0,4.953-3.338,8.9-7.456,8.9a6.779,6.779,0,0,1-4.68-1.759v1.328H520.4v-25.48h3.244v9.9a6.923,6.923,0,0,1,4.68-1.723C532.443,292.728,535.782,296.677,535.782,301.557Zm-3.244,0c0-2.979-1.966-5.455-4.68-5.455a4.661,4.661,0,0,0-4.211,2.369v6.209a4.7,4.7,0,0,0,4.211,2.4C530.572,307.084,532.537,304.572,532.537,301.557ZM553.5,292.8v3.517a6.5,6.5,0,0,0-5.429,3.087v10.623h-3.244V293.159h3.244v2.3A6.723,6.723,0,0,1,553.5,292.8Zm22.4,8.793c0,5.168-3.244,8.864-7.8,8.864s-7.8-3.7-7.8-8.864,3.244-8.865,7.8-8.865S575.9,296.425,575.9,301.593Zm-3.244,0c0-3.194-1.9-5.491-4.555-5.491s-4.555,2.3-4.555,5.491c0,3.158,1.9,5.491,4.555,5.491S572.652,304.751,572.652,301.593Zm31.443-8.434-5.272,16.867h-2.839l-3.432-11.7-3.463,11.7h-2.838l-5.272-16.867h3.493l3.182,11.269,3.494-11.269h2.777l3.494,11.233,3.182-11.233Z" transform="translate(-358.745 -284.321)" fill="#fff"/>
  </g>
</svg>
