<svg xmlns="http://www.w3.org/2000/svg" width="238.701" height="25.428" viewBox="0 0 238.701 25.428">
  <path id="패스_535" data-name="패스 535" d="M363.72,292.236V284.35h-2.905v7.886h-2.07v2.659h2.07v14.243h2.905V294.895h4.141v-2.659Zm20.637-.47a8.919,8.919,0,1,0,8.969,8.956A8.915,8.915,0,0,0,384.357,291.766Zm0,15.176a6.26,6.26,0,1,1,6.063-6.257A6.013,6.013,0,0,1,384.357,306.942Zm26.767-6.8,6.247-7.91h-3.632l-4.467,5.754-4.468-5.754h-3.558l6.21,7.91-7.266,8.992h3.635l5.448-6.87,5.41,6.87h3.525Zm23.082-8.379a5.745,5.745,0,0,0-4.867,2.519h-.07v-2.049H426.36v16.9h2.909v-8.02c0-3.022.253-6.69,4.248-6.69,3.378,0,3.595,2.445,3.595,5.178v9.532h2.905V299.1C440.017,295.147,438.928,291.766,434.206,291.766Zm33.434.47v16.9h2.905v-16.9Zm13.6-7.886v24.788h2.905V284.35Zm13.543,0v24.788h2.905V284.35Zm-35.987,2.878h-1.962c-2.361,0-2.361,1.268-2.361,4.639v.368h4.323V294.9h-4.323v14.241h-2.906V294.9H449.4v-2.662h2.162V290.86c0-1.4,0-3.7.763-4.919.945-1.511,2.652-1.59,4.4-1.59h2.071Zm11.752,0H467.64v-2.906h2.905Zm60.439,13.863c0,4.819-3.248,8.659-7.253,8.659a6.6,6.6,0,0,1-4.553-1.711v1.292h-3.156V284.54h3.156v9.636a6.736,6.736,0,0,1,4.553-1.676C527.736,292.5,530.984,296.342,530.984,301.09Zm-3.156,0c0-2.9-1.912-5.308-4.553-5.308a4.535,4.535,0,0,0-4.1,2.3v6.04a4.571,4.571,0,0,0,4.1,2.34C525.915,306.467,527.828,304.023,527.828,301.09Zm20.394-8.519v3.421a6.323,6.323,0,0,0-5.281,3V309.33h-3.156v-16.41h3.156v2.234A6.54,6.54,0,0,1,548.221,292.571Zm21.79,8.555c0,5.028-3.156,8.624-7.588,8.624s-7.588-3.6-7.588-8.624,3.156-8.625,7.588-8.625S570.011,296.1,570.011,301.125Zm-3.156,0c0-3.108-1.851-5.343-4.431-5.343s-4.431,2.235-4.431,5.343c0,3.072,1.851,5.342,4.431,5.342S566.855,304.2,566.855,301.125Zm30.591-8.206-5.129,16.41h-2.762l-3.339-11.382-3.369,11.382h-2.761l-5.129-16.41h3.4l3.1,10.963,3.4-10.963h2.7l3.4,10.928,3.1-10.928Z" transform="translate(-358.745 -284.321)" fill="#a73439"/>
</svg>
