<svg id="그룹_7079" data-name="그룹 7079" xmlns="http://www.w3.org/2000/svg" xmlns:xlink="http://www.w3.org/1999/xlink" width="190" height="76.986" viewBox="0 0 190 76.986">
  <defs>
    <clipPath id="clip-path">
      <rect id="사각형_2964" data-name="사각형 2964" width="190" height="76.986" fill="#888"/>
    </clipPath>
  </defs>
  <path id="패스_1385" data-name="패스 1385" d="M1.651,122.653v6.292H0v2.122H1.651v11.364H3.969V131.067h3.3v-2.122h-3.3v-6.292Z" transform="translate(0 -65.817)" fill="#888"/>
  <g id="그룹_7078" data-name="그룹 7078">
    <g id="그룹_7077" data-name="그룹 7077" clip-path="url(#clip-path)">
      <path id="패스_1386" data-name="패스 1386" d="M35.807,135.423a7.116,7.116,0,1,0,7.156,7.145,7.113,7.113,0,0,0-7.156-7.145m0,12.108a4.995,4.995,0,1,1,4.838-4.992,4.8,4.8,0,0,1-4.838,4.992" transform="translate(-15.373 -72.67)" fill="#888"/>
      <path id="패스_1387" data-name="패스 1387" d="M80.082,142.543l4.984-6.311h-2.9L78.6,140.822l-3.564-4.591H72.2l4.955,6.311-5.8,7.175h2.9l4.346-5.481,4.317,5.481h2.812Z" transform="translate(-38.291 -73.103)" fill="#888"/>
      <path id="패스_1388" data-name="패스 1388" d="M122.679,135.423a4.584,4.584,0,0,0-3.884,2.01h-.056V135.8h-2.321v13.486h2.321v-6.4c0-2.411.2-5.338,3.39-5.338,2.7,0,2.868,1.951,2.868,4.131v7.606h2.318v-8.007c0-3.155-.869-5.854-4.636-5.854" transform="translate(-62.472 -72.67)" fill="#888"/>
      <rect id="사각형_2957" data-name="사각형 2957" width="2.318" height="13.486" transform="translate(86.884 63.128)" fill="#888"/>
      <rect id="사각형_2958" data-name="사각형 2958" width="2.318" height="19.778" transform="translate(97.732 56.836)" fill="#888"/>
      <rect id="사각형_2959" data-name="사각형 2959" width="2.318" height="19.778" transform="translate(108.538 56.836)" fill="#888"/>
      <path id="패스_1389" data-name="패스 1389" d="M163.587,124.95h-1.565c-1.884,0-1.884,1.011-1.884,3.7v.293h3.449v2.123h-3.449v11.363H157.82V131.068h-1.725v-2.123h1.725v-1.1c0-1.119,0-2.949.609-3.924.753-1.205,2.115-1.269,3.506-1.269h1.652Z" transform="translate(-83.762 -65.818)" fill="#888"/>
      <rect id="사각형_2960" data-name="사각형 2960" width="2.318" height="2.318" transform="translate(86.883 56.814)" fill="#888"/>
      <path id="패스_1390" data-name="패스 1390" d="M339.81,135.423a7.116,7.116,0,1,0,7.156,7.145,7.113,7.113,0,0,0-7.156-7.145m0,12.108a4.995,4.995,0,1,1,4.838-4.992,4.8,4.8,0,0,1-4.838,4.992" transform="translate(-178.504 -72.67)" fill="#888"/>
      <path id="패스_1391" data-name="패스 1391" d="M309.995,149.439V135.96h2.289v2.115l.458-.535a4.932,4.932,0,0,1,3.707-1.826v2.525a5.31,5.31,0,0,0-4.117,2.3l-.047.068v8.835Z" transform="translate(-166.347 -72.826)" fill="#888"/>
      <path id="패스_1392" data-name="패스 1392" d="M383.588,149.765l-2.567-9.188-2.568,9.188H376.39l-4.117-13.445h2.476l2.664,9.227,2.613-9.227h1.985l2.586,9.26,2.69-9.26h2.477l-4.116,13.445Z" transform="translate(-199.766 -73.151)" fill="#888"/>
      <path id="패스_1393" data-name="패스 1393" d="M276.6,129.075a5.617,5.617,0,0,0-3.729,1.423v-7.845h-2.289v19.778h2.289v-1.326a5.642,5.642,0,0,0,3.729,1.411c3.373,0,6.015-2.94,6.015-6.694,0-3.784-2.642-6.748-6.015-6.748m0,11.16a3.9,3.9,0,0,1-3.729-3.553V134.91a3.9,3.9,0,0,1,3.729-3.554c2.165,0,3.8,1.909,3.8,4.439s-1.633,4.439-3.8,4.439" transform="translate(-145.2 -65.817)" fill="#888"/>
      <rect id="사각형_2961" data-name="사각형 2961" width="31.882" height="2.544" transform="translate(79.059 13.236)" fill="#888"/>
      <rect id="사각형_2962" data-name="사각형 2962" width="2.507" height="8.538" transform="translate(93.747 13.345)" fill="#888"/>
      <path id="패스_1394" data-name="패스 1394" d="M193.194,42.385h-9.252V27.56h13.612a4.657,4.657,0,0,0,4.5-4.792,4.634,4.634,0,0,0-4.5-4.75H186.541v4.764h-2.6V15.419h13.612a7.234,7.234,0,0,1,7.1,7.349,7.256,7.256,0,0,1-7.1,7.391H186.541v9.627h6.654Z" transform="translate(-98.705 -8.274)" fill="#888"/>
      <path id="패스_1395" data-name="패스 1395" d="M211.573,56.534H209.3V54.027h2.271a4.862,4.862,0,1,0,0-9.718h-5.287V41.8h5.287a7.368,7.368,0,1,1,0,14.733" transform="translate(-110.695 -22.431)" fill="#888"/>
      <rect id="사각형_2963" data-name="사각형 2963" width="2.507" height="12.228" transform="translate(93.747 24.675)" fill="#888"/>
      <path id="패스_1396" data-name="패스 1396" d="M204.736,80.89H203.46a.151.151,0,0,1-.151-.151v-1.1h1.578v1.1a.151.151,0,0,1-.151.151" transform="translate(-109.098 -42.735)" fill="#888"/>
      <path id="패스_1397" data-name="패스 1397" d="M204.356,82.339h-.566l.108.862.367.881v.679h.184v-.679l.367-.881.108-.862Z" transform="translate(-109.356 -44.184)" fill="#888"/>
      <path id="패스_1398" data-name="패스 1398" d="M180.229,0a21.4,21.4,0,0,0-4.012,42.427c.083.016.17.021.254.036v-2.55a18.874,18.874,0,1,1,3.758.382l-.094,0V42.8l.094,0a21.4,21.4,0,0,0,0-42.8" transform="translate(-85.229)" fill="#888"/>
    </g>
  </g>
</svg>
