<svg id="그룹_7024" data-name="그룹 7024" xmlns="http://www.w3.org/2000/svg" xmlns:xlink="http://www.w3.org/1999/xlink" width="227.242" height="27" viewBox="0 0 227.242 27">
  <defs>
    <clipPath id="clip-path">
      <rect id="사각형_2910" data-name="사각형 2910" width="27" height="27"/>
    </clipPath>
  </defs>
  <g id="그룹_7017" data-name="그룹 7017" transform="translate(0 0)">
    <rect id="사각형_2907" data-name="사각형 2907" width="20.112" height="1.605" transform="translate(3.444 8.349)"/>
    <rect id="사각형_2908" data-name="사각형 2908" width="1.582" height="5.386" transform="translate(12.709 8.418)"/>
    <g id="그룹_7016" data-name="그룹 7016">
      <g id="그룹_7015" data-name="그룹 7015" clip-path="url(#clip-path)">
        <path id="패스_1158" data-name="패스 1158" d="M30.951,32.43H25.114V23.078H33.7a3.015,3.015,0,0,0,0-6.019H26.753v3.005H25.114V15.419H33.7a4.653,4.653,0,0,1,0,9.3H26.753V30.79h4.2Z" transform="translate(-17.773 -10.912)"/>
        <path id="패스_1159" data-name="패스 1159" d="M50.793,51.094H49.36V49.512h1.433a3.067,3.067,0,1,0,0-6.13H47.458V41.8h3.335a4.648,4.648,0,1,1,0,9.294" transform="translate(-33.585 -29.581)"/>
        <rect id="사각형_2909" data-name="사각형 2909" width="1.582" height="7.714" transform="translate(12.709 15.565)"/>
        <path id="패스_1160" data-name="패스 1160" d="M45.381,80.427h-.805a.1.1,0,0,1-.1-.1v-.694h1v.694a.1.1,0,0,1-.1.1" transform="translate(-31.479 -56.358)"/>
        <path id="패스_1161" data-name="패스 1161" d="M45.319,82.338h-.357l.068.544.232.556v.428h.116v-.428l.232-.556.068-.544Z" transform="translate(-31.819 -58.27)"/>
        <path id="패스_1162" data-name="패스 1162" d="M13.5,0a13.5,13.5,0,0,0-2.531,26.764c.053.01.107.013.16.023V25.177a11.906,11.906,0,1,1,2.371.241l-.059,0V27l.059,0a13.5,13.5,0,0,0,0-27" transform="translate(0 0)"/>
      </g>
    </g>
  </g>
  <g id="그룹_7020" data-name="그룹 7020" transform="translate(37.863 3.447)">
    <path id="패스_1163" data-name="패스 1163" d="M1.645.048V6.32H0V8.435H1.645V19.762h2.31V8.435H7.249V6.32H3.956V.048Z" transform="translate(0 -0.026)"/>
    <g id="그룹_7019" data-name="그룹 7019" transform="translate(0 0)">
      <path id="패스_1164" data-name="패스 1164" d="M35.783,12.818a7.093,7.093,0,1,0,7.133,7.122,7.09,7.09,0,0,0-7.133-7.122m0,12.069a4.782,4.782,0,0,1-4.825-4.976,4.826,4.826,0,1,1,9.647,0,4.781,4.781,0,0,1-4.822,4.976" transform="translate(-15.416 -6.898)"/>
      <path id="패스_1165" data-name="패스 1165" d="M80.054,19.917l4.968-6.29H82.134L78.58,18.2l-3.553-4.576H72.2l4.939,6.29-5.779,7.151h2.891L78.58,21.6l4.3,5.464h2.8Z" transform="translate(-38.399 -7.333)"/>
      <path id="패스_1166" data-name="패스 1166" d="M122.659,12.818a4.569,4.569,0,0,0-3.871,2h-.056V13.192h-2.313V26.633h2.313V20.256c0-2.4.2-5.32,3.379-5.32,2.686,0,2.859,1.944,2.859,4.117v7.581h2.311V18.652c0-3.145-.866-5.834-4.621-5.834" transform="translate(-62.648 -6.898)"/>
      <rect id="사각형_2911" data-name="사각형 2911" width="2.31" height="13.441" transform="translate(86.6 6.294)"/>
      <rect id="사각형_2912" data-name="사각형 2912" width="2.31" height="19.713" transform="translate(97.413 0.022)"/>
      <rect id="사각형_2913" data-name="사각형 2913" width="2.31" height="19.713" transform="translate(108.183 0.022)"/>
      <path id="패스_1167" data-name="패스 1167" d="M163.563,2.338H162c-1.878,0-1.878,1.008-1.878,3.689v.292h3.438V8.436h-3.438V19.761h-2.311V8.436h-1.719V6.319h1.719V5.226c0-1.115,0-2.939.607-3.912.751-1.2,2.108-1.265,3.495-1.265h1.647Z" transform="translate(-83.999 -0.027)"/>
      <rect id="사각형_2914" data-name="사각형 2914" width="2.311" height="2.311" transform="translate(86.599)"/>
      <path id="패스_1168" data-name="패스 1168" d="M339.786,12.818a7.093,7.093,0,1,0,7.133,7.122,7.09,7.09,0,0,0-7.133-7.122m0,12.069a4.782,4.782,0,0,1-4.825-4.976,4.826,4.826,0,1,1,9.647,0,4.781,4.781,0,0,1-4.822,4.976" transform="translate(-179.008 -6.898)"/>
      <path id="패스_1169" data-name="패스 1169" d="M309.995,26.789V13.354h2.281v2.108l.456-.533a4.916,4.916,0,0,1,3.694-1.82v2.517a5.293,5.293,0,0,0-4.1,2.289l-.047.067v8.806Z" transform="translate(-166.816 -7.055)"/>
      <path id="패스_1170" data-name="패스 1170" d="M383.551,27.116l-2.559-9.158-2.56,9.158h-2.055l-4.1-13.4h2.468l2.656,9.2,2.6-9.2h1.979l2.578,9.23,2.682-9.23h2.469l-4.1,13.4Z" transform="translate(-200.33 -7.38)"/>
      <path id="패스_1171" data-name="패스 1171" d="M276.585,6.449a5.6,5.6,0,0,0-3.717,1.418V.048h-2.281V19.761h2.281V18.44a5.624,5.624,0,0,0,3.717,1.407c3.362,0,6-2.931,6-6.672,0-3.772-2.634-6.726-6-6.726m0,11.123a3.884,3.884,0,0,1-3.717-3.542V12.265a3.885,3.885,0,0,1,3.717-3.542c2.157,0,3.785,1.9,3.785,4.425s-1.627,4.425-3.785,4.425" transform="translate(-145.61 -0.026)"/>
    </g>
  </g>
</svg>
